<?xml version="1.0" encoding="iso-8859-1"?>
<!-- Uploaded to: SVG Repo, www.svgrepo.com, Generator: SVG Repo Mixer Tools -->
<!DOCTYPE svg PUBLIC "-//W3C//DTD SVG 1.1//EN" "http://www.w3.org/Graphics/SVG/1.1/DTD/svg11.dtd">
<svg fill="chartreuse" height="0.8em" width="1em" version="1.1" id="Capa_1" xmlns="http://www.w3.org/2000/svg" xmlns:xlink="http://www.w3.org/1999/xlink" 
	 viewBox="0 0 246.001 246.001" xml:space="preserve">
<path d="M211.667,238.5c0,4.142-3.358,7.5-7.5,7.5h-163c-4.142,0-7.5-3.358-7.5-7.5v-16c0-4.142,3.358-7.5,7.5-7.5h163
	c4.142,0,7.5,3.358,7.5,7.5V238.5z M241.748,0.74c-3.043-1.458-6.683-0.71-8.899,1.83l-59.492,68.199l-44.08-67.375
	C127.891,1.277,125.53,0,123,0s-4.891,1.276-6.276,3.394L72.627,70.795L13.137,3.012C10.914,0.481,7.277-0.26,4.24,1.204
	c-3.034,1.465-4.72,4.773-4.12,8.089l33,182.541c0.645,3.57,3.752,6.166,7.38,6.166h165c3.629,0,6.737-2.598,7.381-6.169l33-183
	C246.48,5.512,244.788,2.2,241.748,0.74z"/>
</svg>